<svg id="MBED_Enabled_vertical_copy" data-name="MBED Enabled vertical copy" xmlns="http://www.w3.org/2000/svg" viewBox="0 0 133.61 139.29"><defs><style>.cls-1{fill:#008fbe;}.cls-2{fill:#fff;}</style></defs><title>arm_mbed_enabled_block_lockup_vertical</title><rect class="cls-1" width="133.61" height="139.29" rx="9.19" ry="9.19"/><path class="cls-2" d="M297.06,256.21c0,4.85,3.06,8.9,7.77,8.9,4.12,0,7.91-3,7.91-8.84,0-6.11-3.79-9-7.91-9-4.72,0-7.77,4-7.77,9m15.28-14.08h6.51v28h-6.51v-2.92A10.74,10.74,0,0,1,304,271c-8.64,0-13.55-7.18-13.55-14.88,0-9.1,6.24-14.68,13.62-14.68a10.2,10.2,0,0,1,8.3,4Z" transform="translate(-272.06 -224.63)"/><path class="cls-2" d="M326.6,242.13h6.51v2.52a11.27,11.27,0,0,1,2.72-2.33,7.52,7.52,0,0,1,4-.93,9.66,9.66,0,0,1,5.12,1.33l-2.66,5.91a5.89,5.89,0,0,0-3.32-1,5.07,5.07,0,0,0-4.05,1.53c-1.79,1.93-1.79,4.58-1.79,6.44V270.1H326.6Z" transform="translate(-272.06 -224.63)"/><path class="cls-2" d="M349.14,242.13h6.51v2.59a8.62,8.62,0,0,1,6.91-3.32,8.21,8.21,0,0,1,7.24,4.12,9.91,9.91,0,0,1,8.3-4.12,9,9,0,0,1,8,4.38c.53.93,1.46,3,1.46,7V270.1H381V254.69c0-3.12-.33-4.38-.6-5a3.69,3.69,0,0,0-3.72-2.46,4.81,4.81,0,0,0-3.85,2.06c-1.13,1.59-1.26,4-1.26,6.38V270.1h-6.51V254.69c0-3.12-.33-4.38-.6-5a3.69,3.69,0,0,0-3.72-2.46,4.81,4.81,0,0,0-3.85,2.06c-1.13,1.59-1.26,4-1.26,6.38V270.1h-6.51Z" transform="translate(-272.06 -224.63)"/><path class="cls-2" d="M290.09,310.39l4.66-29.57,10.75,23.65,11-23.69,4.37,29.62h-3.19L315,290.9l-9.54,20.67-9.41-20.67-2.77,19.49Z" transform="translate(-272.06 -224.63)"/><path class="cls-2" d="M331.79,282.37c1.55,0,4.37.13,6.43,1.76a7,7,0,0,1,2.52,5.8,6.32,6.32,0,0,1-2.77,5.5,7,7,0,0,1,5.33,7.06,7.74,7.74,0,0,1-2.86,6,10.22,10.22,0,0,1-6.72,1.85h-7v-28Zm-1.93,12.31h2.35c1.64,0,5.5-.34,5.5-4.66,0-4.62-4.54-4.7-5.42-4.7h-2.44Zm0,12.77h3.57c1.81,0,3.57-.13,4.92-1.18a4.72,4.72,0,0,0,1.85-3.86,4.54,4.54,0,0,0-2.39-4.12,9.77,9.77,0,0,0-4.75-.84h-3.19Z" transform="translate(-272.06 -224.63)"/><path class="cls-2" d="M363,285.31H351.57v8.32h11.09v2.94H351.57v10.88H363v2.94H348.47v-28H363Z" transform="translate(-272.06 -224.63)"/><path class="cls-2" d="M368.16,282.37h5.71a15.24,15.24,0,0,1,10.33,3.28A13.66,13.66,0,0,1,389,296.4a13.34,13.34,0,0,1-4.92,10.75c-2.56,2.18-5.25,3.23-10.25,3.23h-5.67Zm3.11,25.08H374a12,12,0,0,0,8-2.52,10.72,10.72,0,0,0,3.78-8.53c0-6.72-4.71-11.09-11.8-11.09h-2.73Z" transform="translate(-272.06 -224.63)"/><path class="cls-2" d="M301.7,326.68h-9v6.54h8.71v2.31h-8.71v8.55h9v2.31H290.28v-22H301.7Z" transform="translate(-272.06 -224.63)"/><path class="cls-2" d="M304.93,332.69h2.38v1.58a4.83,4.83,0,0,1,3.93-1.91,4.65,4.65,0,0,1,3.93,1.88,6.11,6.11,0,0,1,.79,3.66v8.48h-2.38V338a4,4,0,0,0-.63-2.51,2.69,2.69,0,0,0-2.24-1,3,3,0,0,0-2.41,1.06,5.77,5.77,0,0,0-1,3.7v7.16h-2.38Z" transform="translate(-272.06 -224.63)"/><path class="cls-2" d="M330.27,332.69h2.38v13.7h-2.38v-1.91a5.78,5.78,0,0,1-4.69,2.31c-3.47,0-6.67-2.44-6.67-7.26s3.17-7.16,6.67-7.16a5.67,5.67,0,0,1,4.69,2.28Zm-8.91,6.83c0,2.94,1.65,5.15,4.49,5.15s4.55-2.41,4.55-5.12c0-3.53-2.44-5.08-4.55-5.08C323.51,334.47,321.36,336.19,321.36,339.52Z" transform="translate(-272.06 -224.63)"/><path class="cls-2" d="M338.85,346.39h-2.38V322.33h2.38V334.6a5.89,5.89,0,0,1,4.69-2.24c4.29,0,6.67,3.56,6.67,7.26s-2.41,7.16-6.57,7.16a5.82,5.82,0,0,1-4.79-2.31Zm8.91-6.77c0-3.37-2.28-5.15-4.49-5.15s-4.55,1.82-4.55,5.12c0,2.8,1.78,5.08,4.59,5.08S347.76,342.36,347.76,339.62Z" transform="translate(-272.06 -224.63)"/><path class="cls-2" d="M355.55,322.33v24.06h-2.38V322.33Z" transform="translate(-272.06 -224.63)"/><path class="cls-2" d="M371.52,342.89a8.19,8.19,0,0,1-1.68,2.21,6.65,6.65,0,0,1-4.55,1.68c-3.3,0-6.77-2.08-6.77-7.16,0-4.09,2.51-7.26,6.63-7.26a6.13,6.13,0,0,1,5.18,2.51,9.19,9.19,0,0,1,1.29,5.15H361a4.39,4.39,0,0,0,4.36,4.65,4.17,4.17,0,0,0,2.81-1,5.45,5.45,0,0,0,1.42-1.88ZM369.18,338a4.1,4.1,0,0,0-4-3.56,4.16,4.16,0,0,0-4,3.56Z" transform="translate(-272.06 -224.63)"/><path class="cls-2" d="M385.09,322.33h2.38v24.06h-2.38v-1.91a5.78,5.78,0,0,1-4.69,2.31c-3.47,0-6.67-2.44-6.67-7.26s3.17-7.16,6.67-7.16a5.67,5.67,0,0,1,4.69,2.28Zm-8.91,17.2c0,2.94,1.65,5.15,4.49,5.15s4.55-2.41,4.55-5.12c0-3.53-2.44-5.08-4.55-5.08C378.32,334.47,376.18,336.19,376.18,339.52Z" transform="translate(-272.06 -224.63)"/></svg>